<?xml version="1.0" standalone="no"?>
<!DOCTYPE svg PUBLIC "-//W3C//DTD SVG 20010904//EN"
 "http://www.w3.org/TR/2001/REC-SVG-20010904/DTD/svg10.dtd">
<svg version="1.0" xmlns="http://www.w3.org/2000/svg"
 width="500.000000pt" height="500.000000pt" viewBox="0 0 500.000000 500.000000"
 preserveAspectRatio="xMidYMid meet">
<metadata>
Created by potrace 1.11, written by Peter Selinger 2001-2013
</metadata>
<g transform="translate(0.000000,500.000000) scale(0.100000,-0.100000)"
fill="#000000" stroke="none">
<path d="M1138 4663 l-3 -268 -325 -7 c-298 -6 -330 -8 -382 -28 -133 -50
-230 -141 -297 -280 l-36 -75 -3 -368 -3 -367 35 -104 c70 -210 158 -351 320
-512 194 -192 453 -338 715 -401 66 -16 69 -18 91 -62 34 -72 142 -229 204
-301 166 -190 413 -352 659 -435 l102 -34 0 -413 0 -413 -537 -3 -538 -2 0
-270 0 -270 1344 0 1343 0 6 83 c4 45 7 166 7 270 l0 187 -535 0 -535 0 0 423
0 422 98 33 c382 130 696 392 847 708 l33 70 68 13 c180 33 421 140 575 256
227 170 418 445 494 711 l26 91 -3 364 -3 364 -33 67 c-56 115 -170 204 -329
259 -51 17 -85 19 -375 19 l-318 0 0 270 0 270 -1355 0 -1355 0 -2 -267z m2
-1343 l0 -519 -28 12 c-89 38 -175 99 -267 192 -112 112 -172 206 -217 340
-27 77 -28 88 -28 288 l0 207 270 0 270 0 0 -520z m3250 327 c0 -161 -3 -207
-20 -273 -50 -195 -171 -362 -349 -483 -52 -35 -153 -91 -166 -91 -3 0 -5 234
-5 520 l0 520 270 0 270 0 0 -193z"/>
</g>
</svg>
